<svg width="768" height="195" viewBox="0 0 768 195" fill="none" xmlns="http://www.w3.org/2000/svg">
<mask id="mask0" mask-type="alpha" maskUnits="userSpaceOnUse" x="0" y="0" width="768" height="195">
<path d="M768 105.197L0 195V0H768V105.197Z" fill="#F0F8FF"/>
</mask>
<g mask="url(#mask0)">
<path d="M769 103.731L-1.5 195V0H769V103.731Z" fill="#FFF5F5"/>
<path d="M235.299 165.984L235.409 166.192L235.472 166.401L235.441 166.61L235.267 166.818L235.457 167.027L235.362 167.235L235.22 167.444L235.393 167.652L235.314 167.861L235.33 168.069L235.267 168.278V168.487L235.093 168.684L235.156 168.904L235.109 169.101L235.22 169.321L235.125 169.518L235.046 169.726L235.141 169.946L235.093 170.143L235.283 170.364L234.982 170.561L235.062 170.769L234.998 170.978L234.903 171.175L235.014 171.395L235.093 171.615L234.903 171.812L234.998 172.02L235.046 172.241L234.935 172.438L234.824 172.635L234.745 172.843L234.73 173.052L234.682 173.26L234.761 173.469L234.572 173.666L234.745 173.898L234.666 174.094L234.556 174.291L234.587 174.512L234.651 174.72L234.334 174.906L234.35 175.114L234.224 175.311L234.24 175.52L234.382 175.751L234.319 175.96V176.169L234.287 176.377L234.145 176.562L234.161 176.783L234.097 176.991L234.113 177.2L233.86 177.374L233.718 177.57L233.908 177.814L233.844 178.011L233.623 178.196L233.544 178.393L233.56 178.602L233.639 178.833L233.307 178.996L233.355 179.216L233.37 179.424L233.402 179.644L233.323 179.853L233.291 180.062L232.991 180.224L232.896 180.421L232.944 180.641L232.928 180.849L232.896 181.058L232.691 181.243L232.564 181.429L232.533 181.637L232.501 181.846L232.422 182.055L232.501 182.286L232.454 182.495L232.248 182.669V182.877L232.169 183.086L232.011 183.26L231.837 183.445L231.758 183.642L231.616 183.827L231.727 184.071V184.291L231.379 184.43L231.363 184.638V184.858L231.379 185.09L231.205 185.264L231.063 185.449L230.984 185.646L230.873 185.843L230.668 186.017L230.778 186.26L230.573 186.434L230.668 186.666L230.431 186.828L230.462 187.06L230.178 187.211L230.209 187.442L230.035 187.616L229.893 187.801L229.941 188.033L229.672 188.184L229.624 188.392L229.435 188.566L229.308 188.752L229.403 189.006L229.071 189.122L229.103 189.366L228.945 189.539L228.739 189.702L228.882 189.968L228.597 190.107L228.471 190.293L228.407 190.501L228.328 190.698L228.139 190.872L227.965 191.046L228.028 191.289L227.838 191.463L227.807 191.671L227.649 191.845V192.077L227.269 192.181L227.317 192.436L227.222 192.633L227.143 192.83L226.985 193.004L226.7 193.131L226.764 193.386L226.669 193.583L226.542 193.78L226.416 193.966L226.037 194.058L226.052 194.302L225.8 194.441L225.815 194.672L225.673 194.858L225.404 194.985V195.228L225.278 195.414L224.978 195.53L225.009 195.773L224.867 195.958L224.725 196.144L224.504 196.283L224.425 196.491L224.33 196.688L223.998 196.793L223.95 197.013V197.256L223.713 197.395L223.555 197.569L223.381 197.731L223.176 197.893L223.16 198.125L223.081 198.334L222.891 198.496L222.654 198.635L222.623 198.867L222.386 198.994L222.07 199.098L222.133 199.376L221.99 199.562L221.817 199.724L221.532 199.84L221.311 199.979V200.234L221.026 200.338L220.9 200.524L220.884 200.778L220.584 200.871L220.6 201.138L220.331 201.254L220.141 201.404L220.11 201.647L219.699 201.694L219.541 201.868L219.43 202.065L219.272 202.238L219.177 202.447L218.893 202.551L218.924 202.818L218.719 202.968L218.371 203.038L218.387 203.304L218.039 203.385L217.944 203.582L217.77 203.756L217.565 203.895L217.549 204.15L217.201 204.22L217.075 204.405L216.822 204.521L216.664 204.695L216.648 204.961L216.269 205.008L216.19 205.216L215.937 205.344V205.61L215.684 205.726L215.4 205.83L215.384 206.097L215.052 206.155L214.894 206.328L214.704 206.479L214.53 206.641L214.451 206.873L214.119 206.943L214.072 207.186L213.756 207.255L213.566 207.418L213.456 207.626L213.298 207.8L212.997 207.881L212.839 208.055L212.555 208.148L212.412 208.333L212.239 208.495L212.017 208.634L211.843 208.796L211.717 208.993L211.354 209.04L211.164 209.19V209.48L210.911 209.584L210.579 209.642L210.453 209.851L210.342 210.059L210.042 210.129L209.789 210.233L209.567 210.372L209.552 210.662L209.362 210.813L209.125 210.94L208.856 211.033L208.651 211.172L208.54 211.392L208.192 211.415L208.098 211.658H207.718L207.544 211.832L207.481 212.087L207.165 212.133L207.07 212.377L206.786 212.458L206.644 212.655L206.375 212.747L206.138 212.852L205.885 212.968L205.616 213.049L205.411 213.199L205.3 213.431L205.031 213.512L204.842 213.674L204.668 213.848L204.352 213.895L204.162 214.057L204.02 214.265L203.735 214.335L203.419 214.381L203.356 214.659L202.945 214.601L202.882 214.891L202.503 214.868L202.376 215.088L202.155 215.215L201.949 215.366L201.712 215.482L201.523 215.656L201.317 215.795L201.033 215.853L200.764 215.934L200.606 216.131L200.337 216.212L200.005 216.247L199.895 216.49H199.547L199.341 216.641L199.168 216.814L198.946 216.953L198.757 217.104L198.362 217.058L198.235 217.301L198.061 217.475L197.698 217.452L197.461 217.579L197.271 217.718L197.034 217.834L196.781 217.95L196.544 218.054L196.275 218.135L196.054 218.274L195.754 218.321L195.643 218.576L195.39 218.68L195.058 218.668L194.869 218.83L194.568 218.877L194.473 219.178L194.126 219.143L193.889 219.259L193.683 219.41L193.478 219.572L193.098 219.526L192.988 219.781L192.608 219.734L192.419 219.896L192.182 220.024L191.913 220.082L191.676 220.209L191.376 220.232L191.138 220.348L190.949 220.522L190.696 220.626L190.443 220.719L190.238 220.881L189.874 220.812L189.637 220.928L189.432 221.113L189.147 221.148L188.989 221.391L188.625 221.333L188.436 221.495L188.167 221.588H187.851L187.693 221.82H187.377L187.092 221.855L186.855 221.97L186.666 222.179L186.349 222.167L186.144 222.353L185.891 222.445L185.591 222.457L185.338 222.55H185.022L184.832 222.735L184.563 222.816L184.232 222.77L184.042 222.99L183.757 223.036L183.504 223.117L183.267 223.233L182.967 223.245L182.667 223.268L182.493 223.523L182.208 223.569L181.987 223.697L181.639 223.627L181.387 223.732L181.086 223.743L180.865 223.882L180.596 223.952L180.375 224.126L180.106 224.183L179.853 224.288L179.585 224.369H179.284L179.032 224.473L178.7 224.38L178.447 224.508L178.178 224.577L177.909 224.647L177.688 224.798L177.356 224.751L177.119 224.879L176.866 224.96L176.566 224.983L176.297 225.041L176.029 225.087L175.744 225.145L175.523 225.307H175.222L174.906 225.284L174.685 225.47L174.369 225.4L174.116 225.504L173.832 225.516L173.595 225.678L173.294 225.655L173.073 225.875L172.804 225.921L172.488 225.875L172.204 225.887L171.935 225.968L171.666 226.049L171.382 226.06L171.145 226.211L170.86 226.257L170.56 226.223L170.244 226.176L169.991 226.269L169.722 226.327L169.469 226.478L169.153 226.42L168.9 226.512L168.647 226.64L168.347 226.605L168.063 226.617L167.747 226.57L167.478 226.628L167.257 226.883L166.941 226.767H166.656L166.372 226.825L166.087 226.802L165.85 227.034L165.565 227.057L165.281 227.069L164.965 226.953L164.696 227.034L164.427 227.092L164.127 227.08L163.858 227.138L163.606 227.3L163.305 227.266L163.005 227.184L162.736 227.266L162.483 227.451L162.183 227.358L161.883 227.335L161.598 227.358L161.33 227.416L161.061 227.509L160.761 227.416L160.476 227.428L160.192 227.439L159.939 227.659L159.638 227.602L159.338 227.497L159.069 227.59L158.801 227.752L158.516 227.798L158.216 227.671L157.947 227.787L157.663 227.798H157.378L157.094 227.752L156.825 227.891L156.525 227.752L156.24 227.868L155.956 227.787L155.671 227.798L155.387 227.775L155.102 227.914L154.834 227.949L154.533 227.88H154.249L153.964 227.961L153.696 228.007L153.395 227.845H153.111L152.826 227.88L152.542 227.938L152.257 227.798L151.973 227.891L151.688 227.868L151.404 228.03L151.119 227.833H150.835L150.55 227.856L150.266 227.868L149.981 227.995L149.697 227.833L149.412 227.949L149.128 228.007L148.843 228.03L148.559 227.984L148.274 227.914L147.99 227.926L147.721 227.764L147.437 227.775L147.136 227.938L146.868 227.81L146.583 227.822L146.299 227.856H145.998L145.714 227.926L145.445 227.775L145.145 227.891L144.876 227.741L144.576 227.868L144.307 227.671L144.023 227.706L143.738 227.694L143.47 227.613L143.169 227.706L142.885 227.729L142.6 227.625L142.3 227.741L142.031 227.659L141.763 227.497L141.478 227.578L141.194 227.497L140.909 227.52L140.625 227.544L140.356 227.37L140.056 227.486L139.771 227.497L139.518 227.3L139.218 227.312L138.949 227.289L138.681 227.173H138.396L138.112 227.15L137.827 227.126L137.543 227.115L137.258 227.103L136.974 227.08L136.689 227.069L136.436 226.918L136.136 226.941L135.867 226.86L135.551 227.011L135.267 226.987L135.014 226.848L134.729 226.825L134.476 226.698L134.144 226.802L133.923 226.582L133.654 226.524L133.338 226.57L133.038 226.628L132.785 226.489L132.501 226.466L132.248 226.35L131.947 226.373L131.631 226.431L131.426 226.153L131.094 226.315L130.873 226.107L130.588 226.072L130.272 226.142L130.019 226.014L129.751 225.945L129.434 226.014L129.229 225.759L128.881 225.91L128.613 225.84L128.375 225.69L128.044 225.759L127.838 225.539H127.538L127.285 225.435L126.969 225.481L126.716 225.388L126.447 225.319L126.147 225.307L125.878 225.238L125.61 225.203L125.357 225.064L125.104 224.995L124.803 224.96L124.566 224.844L124.25 224.879L123.982 224.786L123.745 224.659L123.476 224.601L123.191 224.566L122.891 224.554L122.717 224.288L122.433 224.265L122.164 224.183L121.927 224.079L121.642 224.033L121.358 223.986L121.089 223.94L120.805 223.882L120.536 223.836L120.315 223.662L120.03 223.604L119.698 223.674L119.461 223.546L119.177 223.511L118.924 223.419L118.687 223.291L118.466 223.129L118.181 223.083L117.881 223.071L117.596 223.036L117.328 222.955L117.059 222.874L116.838 222.747L116.632 222.573L116.379 222.48L116.047 222.503L115.763 222.457L115.542 222.306L115.241 222.295L115.036 222.109L114.846 221.924L114.514 221.947L114.277 221.843L114.072 221.658L113.708 221.727L113.439 221.658L113.202 221.553L113.06 221.298L112.728 221.31L112.523 221.136L112.238 221.101L112.001 220.974L111.717 220.928L111.511 220.777L111.163 220.812L110.99 220.592L110.784 220.429L110.436 220.476L110.31 220.221L109.978 220.209L109.741 220.105L109.409 220.117L109.204 219.954L108.919 219.908L108.761 219.688L108.445 219.665L108.271 219.456L108.066 219.317L107.686 219.375L107.607 219.074L107.291 219.039L107.007 218.981L106.849 218.784L106.564 218.726L106.374 218.552L106.122 218.448L105.774 218.46L105.505 218.379L105.395 218.124L105.189 217.973L104.794 218.043L104.62 217.857L104.446 217.66L104.241 217.521H103.893L103.735 217.324L103.482 217.231L103.277 217.081L102.881 217.139L102.708 216.953L102.581 216.733L102.218 216.745L102.139 216.455L101.728 216.513L101.68 216.223L101.333 216.2L101.206 215.992L100.906 215.934L100.605 215.887L100.337 215.783L100.226 215.551L99.9891 215.447L99.831 215.25H99.4675L99.3253 215.053L99.0566 214.961L98.9617 214.717L98.693 214.636L98.456 214.509L98.1715 214.439L97.9976 214.265L97.6815 214.219L97.6183 213.941L97.2231 213.964L96.9703 213.86L96.749 213.732L96.6383 213.501L96.4803 213.315H96.1168L96.0852 213.014L95.69 213.037L95.6584 212.747H95.2791L95.1685 212.527L94.8365 212.493L94.5995 212.365L94.5046 212.133L94.2043 212.064L94.1411 211.797L93.8408 211.739L93.5563 211.647L93.4299 211.45L93.256 211.276L93.1296 211.079L92.8609 210.986L92.5606 210.905L92.4341 210.697L92.2445 210.546L91.9758 210.453L91.8019 210.291L91.6597 210.094L91.2961 210.071L91.2329 209.828L91.1065 209.619L90.8694 209.492L90.6165 209.387L90.2846 209.341L90.2372 209.086L90.0475 208.924L89.7472 208.843L89.7156 208.576L89.3679 208.53L89.194 208.368L88.9728 208.24L88.7673 208.09L88.6725 207.869L88.4828 207.719L88.1351 207.661L88.0719 207.429L87.7874 207.337L87.7399 207.093L87.4554 206.989L87.3606 206.78L87.0761 206.688L86.8548 206.549L86.7916 206.317L86.6178 206.143L86.4913 205.946L86.0962 205.923L85.8907 205.772L85.7485 205.587L85.6852 205.355L85.5114 205.193L85.2743 205.066L85.1795 204.857L85.0214 204.683L84.7843 204.556L84.5157 204.44L84.405 204.243L84.2312 204.081L84.0257 203.93L83.8834 203.756L83.6622 203.617L83.5357 203.42L83.2512 203.316L83.2196 203.073L82.8877 203.003L82.8561 202.748L82.7455 202.551L82.6032 202.377L82.3345 202.262L82.2397 202.053L82.0974 201.868L81.971 201.682L81.8129 201.508L81.5601 201.393L81.4968 201.161L81.2281 201.045L80.9436 200.929L80.9911 200.663L80.6117 200.605L80.4695 200.419L80.2798 200.257L80.2324 200.037L80.0269 199.875L79.9163 199.689L79.695 199.539V199.295L79.5844 199.098L79.3947 198.936L79.2367 198.774L79.1576 198.554L78.8099 198.473L78.6045 198.322L78.478 198.137L78.3674 197.94L78.1935 197.766L78.0039 197.615L78.0987 197.326L77.8616 197.187L77.7668 196.978L77.5297 196.851L77.2768 196.712L77.2136 196.503L77.0397 196.329L77.0713 196.086L76.8185 195.947L76.5814 195.796L76.692 195.518L76.3443 195.425L76.1704 195.252L76.0598 195.066V194.823L75.9808 194.614L75.7279 194.475L75.7911 194.22L75.5856 194.07L75.3486 193.919L75.1589 193.757L75.2063 193.502L74.906 193.386L74.8902 193.154L74.7321 192.981L74.5109 192.83V192.598L74.258 192.448L74.3054 192.204L74.2106 192.007L74.0209 191.845L73.9735 191.625L73.6416 191.509L73.6732 191.277L73.5626 191.08L73.4203 190.895L73.4677 190.663L73.2306 190.513L73.1832 190.293L72.8829 190.165L73.041 189.887L72.63 189.783L72.8197 189.505L72.4246 189.4V189.169L72.3455 188.972L72.1243 188.81L72.0769 188.601L72.1243 188.358L72.0294 188.172L71.7766 188.01L71.5869 187.848L71.7291 187.581L71.6817 187.373L71.5079 187.199V186.979L71.3972 186.782L71.1601 186.631L70.9863 186.446L70.8124 186.272L70.9547 186.017L70.8598 185.82L70.7018 185.646L70.6386 185.438L70.3541 185.287L70.5595 185.021L70.4963 184.812L70.3699 184.627L70.0064 184.488V184.279L69.8957 184.082L69.9589 183.85L69.8483 183.653L69.8009 183.445L69.8325 183.225L69.627 183.051L69.5164 182.854L69.4216 182.657L69.3267 182.46L69.2793 182.263L69.3741 182.02L69.1213 181.858L69.2161 181.626L69.0738 181.44L68.979 181.243L68.7103 181.07L68.8842 180.826L68.7735 180.629L68.6471 180.444L68.7103 180.212L68.5365 180.038L68.6155 179.807L68.5681 179.598L68.2045 179.448L68.4416 179.193L68.3626 178.996L68.0623 178.833L67.9991 178.625L68.1413 178.393L67.9359 178.208L67.8568 178.011L67.92 177.791L67.7146 177.605L67.8252 177.374L67.683 177.188L67.7778 176.956L67.7146 176.759L67.6039 176.562V176.342L67.4933 176.145L67.5565 175.937L67.4617 175.728L67.4933 175.52L67.1614 175.346L67.3194 175.114L67.1298 174.929L67.0508 174.72L67.193 174.5L67.0508 174.303L67.2088 174.071L66.9875 173.886L66.9243 173.677L66.8769 173.48L66.8927 173.272L66.9401 173.052L66.7663 172.855L66.703 172.658L66.8295 172.438L66.7505 172.229L66.6556 172.032L66.7663 171.812L66.7821 171.603L66.7188 171.395L66.4818 171.198V170.989L66.624 170.769L66.5134 170.572L66.4185 170.364L66.5608 170.155L66.4502 169.946L66.5134 169.738L66.4976 169.529L66.5608 169.321L66.4818 169.112L66.3869 168.904L66.4502 168.695L66.2447 168.487L66.4976 168.278L66.5134 168.069L66.466 167.861L66.2921 167.652L66.2605 167.444L66.1973 167.235L66.4502 167.027L66.4818 166.818L66.2921 166.61L66.2763 166.401L66.1973 166.192L66.2289 165.984L66.4027 165.775L66.2447 165.567L66.466 165.358L66.4343 165.15L66.4027 164.941L66.3395 164.733L66.5134 164.524L66.2921 164.315L66.4818 164.107L66.5292 163.898L66.4818 163.69L66.2763 163.481L66.3869 163.273L66.4027 163.064V162.855L66.3869 162.647L66.5134 162.45L66.4976 162.23L66.5134 162.021L66.624 161.824L66.4027 161.604L66.5608 161.407L66.5766 161.199L66.5292 160.978L66.7346 160.781L66.5292 160.561L66.8295 160.376L66.6398 160.156L66.624 159.936L66.7188 159.739L66.8611 159.542L66.703 159.322V159.113L66.8769 158.916L66.9243 158.707L66.9559 158.499L67.114 158.302L67.0982 158.093L66.9243 157.862L67.193 157.676L67.1772 157.468L67.0666 157.248L67.3036 157.062L67.1456 156.83L67.4617 156.657L67.4933 156.448L67.2878 156.216L67.3511 156.008L67.3669 155.799L67.4143 155.602L67.4775 155.394L67.4933 155.185L67.5723 154.977L67.8094 154.803L67.6514 154.571L67.9359 154.397L68.0307 154.2L67.7778 153.945L67.8568 153.748L68.0307 153.563L68.1887 153.366L68.2045 153.157L68.1887 152.949L68.4258 152.764L68.41 152.555L68.5523 152.37L68.41 152.126L68.6471 151.952L68.7261 151.755L68.7577 151.547L68.7261 151.327L68.8368 151.13L68.8051 150.91L69.0264 150.736L69.1371 150.539L68.9632 150.296L69.2319 150.133L69.3583 149.936L69.2793 149.705L69.4057 149.519L69.5164 149.322L69.6428 149.125L69.6586 148.917L69.6902 148.708L69.8641 148.534L69.8799 148.314L69.8957 148.094L69.9905 147.909L69.9431 147.677L70.2434 147.526L70.2276 147.306L70.4963 147.144L70.4489 146.924L70.607 146.738L70.686 146.53L70.6228 146.298L70.7966 146.124L71.0021 145.951L70.8756 145.707L71.1918 145.568L71.1601 145.336L71.1443 145.105L71.3024 144.931L71.4762 144.757L71.4604 144.525L71.4921 144.317L71.7924 144.166L71.903 143.981L72.061 143.807L71.9188 143.541L72.2507 143.413L72.3772 143.228L72.393 143.008L72.4878 142.811L72.63 142.625L72.8197 142.451L72.6616 142.185L73.041 142.069L72.8671 141.791L73.0568 141.629L73.1832 141.443L73.4361 141.293L73.4993 141.084L73.5942 140.887L73.6574 140.679L73.8945 140.528V140.296L74.1157 140.146L74.1315 139.926L74.1632 139.705L74.4951 139.59L74.4318 139.335L74.5267 139.138L74.7163 138.964L74.7796 138.767L74.985 138.605L75.1589 138.431L75.3486 138.269L75.2853 138.014L75.6014 137.898L75.7595 137.724V137.492L75.8069 137.272L76.1072 137.156V136.913L76.4549 136.82L76.5182 136.6L76.5656 136.392L76.7394 136.218L76.9607 136.067L76.8975 135.801L77.1346 135.662L77.1504 135.43L77.3874 135.291L77.5139 135.106L77.6877 134.932L77.8616 134.77L77.988 134.584L78.0987 134.387L78.3516 134.26L78.32 134.005L78.4464 133.808L78.6835 133.669L78.9048 133.53L79.0154 133.333L79.2525 133.194L79.2999 132.974L79.4738 132.811L79.616 132.626L79.7741 132.452L79.8373 132.232L80.1218 132.116L80.3114 131.954L80.4853 131.803L80.5169 131.572L80.6592 131.386L80.9753 131.294V131.027L81.323 130.958L81.3862 130.737L81.4336 130.506L81.6549 130.367L81.9552 130.262L82.129 130.1V129.845L82.2871 129.671L82.5716 129.567V129.301L82.9509 129.254L83.1406 129.092L83.2828 128.907L83.3777 128.71L83.5515 128.536L83.757 128.397L84.0099 128.281V128.015L84.326 127.933L84.3576 127.678L84.4524 127.47L84.6895 127.342L84.8318 127.157L85.0056 126.995L85.2743 126.879L85.3375 126.659L85.7801 126.647L85.8117 126.404L86.112 126.311L86.3017 126.149L86.4597 125.987L86.5071 125.732L86.681 125.581L86.8865 125.431L87.1393 125.315L87.408 125.211L87.5503 125.025L87.6451 124.805L87.819 124.643L88.1193 124.562L88.3247 124.411L88.4038 124.179L88.6408 124.052L88.7831 123.878L88.9253 123.693L89.1624 123.554L89.3995 123.438L89.6682 123.334L89.7946 123.137L90.0949 123.067V122.766L90.4427 122.731L90.5059 122.476L90.8694 122.465L91.0591 122.302L91.1697 122.094L91.3278 121.908L91.7071 121.885L91.8493 121.7L91.9916 121.503L92.1496 121.329L92.4183 121.225L92.5922 121.063L92.7977 120.923L92.9873 120.761L93.3034 120.715L93.4931 120.541L93.6986 120.402L93.8566 120.217L94.0621 120.078L94.2043 119.892L94.552 119.858L94.6311 119.614L94.884 119.51L95.0736 119.348L95.4213 119.325L95.6584 119.209L95.8481 119.046L96.0061 118.861L96.1642 118.676L96.3697 118.537L96.5909 118.409L96.8122 118.259L97.1441 118.235L97.397 118.131L97.476 117.876L97.7289 117.784L97.9818 117.668L98.2189 117.552L98.456 117.448L98.5982 117.227L98.7721 117.054L98.9775 116.926L99.4043 116.984L99.5781 116.81L99.7836 116.66L99.9733 116.486L100.226 116.405L100.511 116.335L100.59 116.046L100.953 116.069L101.127 115.895L101.443 115.86L101.649 115.698L101.775 115.478L102.075 115.431L102.218 115.211H102.565L102.66 114.945L103.071 115.014L103.229 114.817L103.403 114.632L103.688 114.574L103.94 114.47L104.067 114.238L104.399 114.215H104.731L104.873 113.995L105.063 113.821L105.331 113.751L105.553 113.612L105.758 113.462H106.09L106.359 113.381L106.517 113.172L106.722 113.01L106.975 112.917H107.307L107.544 112.813L107.797 112.709L107.955 112.488L108.287 112.512L108.587 112.477L108.666 112.152L109.046 112.21L109.172 111.955L109.441 111.886L109.678 111.77L109.915 111.643L110.247 111.666L110.484 111.55L110.721 111.422L110.926 111.272L111.306 111.33L111.448 111.086L111.732 111.052L112.017 110.994L112.317 110.959L112.57 110.878L112.697 110.588L112.949 110.507L113.234 110.449L113.566 110.461L113.708 110.217L113.977 110.136L114.34 110.217L114.483 109.939L114.767 109.893H115.067L115.32 109.777L115.605 109.742L115.779 109.522L116.126 109.58L116.3 109.337L116.585 109.314L116.806 109.14L117.154 109.209L117.343 109.012L117.691 109.082L117.849 108.815L118.228 108.943L118.466 108.827L118.703 108.711L118.955 108.607L119.287 108.63L119.461 108.398L119.809 108.479L120.062 108.375L120.299 108.259L120.52 108.097L120.868 108.167L121.105 108.062L121.31 107.877L121.595 107.819L121.848 107.726L122.101 107.61L122.433 107.68L122.638 107.483L122.986 107.587L123.16 107.309L123.476 107.356L123.713 107.217L123.997 107.182L124.329 107.24L124.582 107.17L124.788 106.927L125.104 106.973L125.372 106.915L125.657 106.869L125.926 106.799L126.21 106.776L126.495 106.753L126.732 106.602L127.048 106.66L127.301 106.568L127.569 106.487L127.838 106.405L128.059 106.197L128.344 106.174L128.597 106.093L128.897 106.081L129.229 106.174L129.513 106.151L129.766 106.081L130.019 105.965L130.256 105.803L130.588 105.884L130.873 105.872L131.126 105.757L131.363 105.583L131.663 105.594L131.963 105.618H132.248L132.532 105.594L132.785 105.455L133.07 105.421L133.323 105.339L133.607 105.293L133.876 105.2L134.16 105.212L134.461 105.224L134.713 105.073L134.982 105.038L135.298 105.119L135.583 105.108H135.867L136.152 105.073L136.389 104.876L136.705 104.992L136.958 104.818L137.274 104.934L137.543 104.841L137.827 104.853L138.112 104.83L138.38 104.702L138.665 104.725L138.918 104.54L139.234 104.714L139.502 104.633L139.771 104.552L140.071 104.563L140.34 104.494L140.609 104.389L140.925 104.586L141.194 104.447L141.478 104.47L141.747 104.331L142.047 104.389L142.316 104.308L142.616 104.401L142.885 104.25L143.169 104.216L143.454 104.274L143.738 104.204L144.007 104.134L144.307 104.216L144.576 104.134H144.86L145.161 104.239L145.445 104.274H145.73L146.014 104.227H146.299L146.583 104.134L146.852 104.111L147.152 104.181L147.421 103.984L147.705 104.019L147.99 104.077L148.274 104.019L148.559 104.065L148.843 103.984L149.128 103.938H149.412L149.697 103.995L149.981 103.984L150.266 104.111L150.55 103.949L150.835 103.972L151.119 104.053L151.404 104.146L151.688 104.042L151.973 103.949L152.257 104.053L152.542 104.007L152.826 103.972L153.111 103.984L153.395 104.181L153.68 104.169L153.964 104.204L154.249 104.077L154.533 104.158H154.818L155.118 104.007L155.387 104.181L155.671 104.053L155.956 104.227L156.24 104.111L156.525 104.204H156.809L157.078 104.32L157.362 104.308L157.663 104.192L157.947 104.134L158.216 104.297L158.5 104.401L158.801 104.227H159.085L159.354 104.378L159.638 104.343L159.907 104.459L160.207 104.401L160.476 104.54L160.776 104.447L161.061 104.389L161.33 104.575L161.598 104.633L161.899 104.552L162.151 104.702L162.483 104.528L162.752 104.586L163.052 104.563L163.305 104.691H163.59L163.874 104.749L164.127 104.888L164.427 104.864L164.744 104.76L164.981 104.922L165.249 105.027L165.581 104.864L165.85 104.969H166.134L166.387 105.085L166.64 105.224L166.925 105.27L167.225 105.212L167.541 105.131L167.81 105.212L168.094 105.235L168.316 105.479L168.647 105.339H168.932L169.169 105.525H169.454L169.706 105.664L169.975 105.733L170.323 105.583L170.592 105.629L170.844 105.757L171.113 105.838L171.413 105.815L171.698 105.861L171.935 105.988L172.235 105.977L172.52 106.023L172.757 106.185L173.01 106.278L173.31 106.255L173.626 106.232L173.879 106.324L174.164 106.359L174.385 106.533L174.717 106.475L175.001 106.487L175.207 106.73L175.475 106.776L175.791 106.753L176.044 106.834L176.313 106.904L176.629 106.869L176.835 107.101L177.103 107.147L177.356 107.263L177.641 107.298L177.925 107.332L178.241 107.286L178.431 107.529L178.763 107.46L179.016 107.564L179.269 107.657L179.506 107.807L179.79 107.842L180.043 107.923L180.391 107.854L180.596 108.016L180.849 108.12L181.102 108.213L181.371 108.282L181.734 108.19L181.987 108.271L182.145 108.549L182.414 108.618L182.762 108.537L183.046 108.584L183.236 108.804L183.552 108.792L183.726 109.024L184.105 108.908L184.342 109.012L184.563 109.186L184.816 109.267L185.053 109.383L185.354 109.406L185.559 109.592H185.859L186.112 109.696L186.365 109.789L186.666 109.812L186.95 109.858L187.14 110.055L187.345 110.229L187.677 110.183L187.93 110.299L188.214 110.345L188.373 110.577L188.752 110.496L188.942 110.681L189.147 110.843L189.463 110.832L189.732 110.913L189.969 111.04L190.174 111.202L190.522 111.144L190.664 111.399L190.901 111.515L191.154 111.619L191.518 111.561L191.66 111.816L191.913 111.898L192.15 112.025L192.45 112.048L192.703 112.141L192.94 112.257L193.241 112.303L193.478 112.407L193.715 112.535L193.936 112.674L194.141 112.824L194.347 112.975L194.679 112.963L194.837 113.184L195.074 113.299L195.438 113.253L195.69 113.357L195.927 113.473L196.149 113.612L196.291 113.844L196.639 113.832L196.797 114.029L196.986 114.192L197.224 114.319L197.555 114.331L197.84 114.377L197.998 114.586L198.251 114.678L198.456 114.829L198.63 115.003L198.867 115.13L199.168 115.177L199.468 115.234L199.642 115.397L199.831 115.57L200.053 115.698L200.416 115.686L200.527 115.93L200.701 116.103L201.112 116.057L201.191 116.335L201.38 116.474L201.602 116.613L202.028 116.544L202.171 116.741L202.344 116.926L202.55 117.077L202.787 117.181L203.071 117.274L203.277 117.401L203.419 117.61H203.799L203.972 117.772L204.194 117.899L204.431 118.015L204.636 118.166L204.81 118.34L205.126 118.386L205.3 118.56L205.49 118.722L205.616 118.919L205.885 119.023L206.154 119.116L206.438 119.197L206.596 119.371L206.849 119.475L207.086 119.591L207.133 119.869L207.481 119.892L207.576 120.136L207.829 120.24L207.94 120.46L208.287 120.483L208.414 120.703L208.714 120.761L208.935 120.9L209.188 121.005L209.346 121.19L209.583 121.306L209.567 121.607L209.963 121.619L210.01 121.885L210.231 122.013L210.374 122.198L210.611 122.325L210.943 122.372L211.053 122.592L211.29 122.708L211.591 122.789L211.575 123.09L211.843 123.183L211.986 123.368L212.365 123.403L212.539 123.565L212.618 123.785L212.855 123.913L213.013 124.087L213.313 124.179L213.329 124.446L213.566 124.573L213.803 124.701L214.135 124.759L214.183 125.002L214.42 125.129L214.578 125.303L214.625 125.547L214.846 125.674L215.068 125.813L215.384 125.894L215.558 126.056L215.653 126.277L215.921 126.381L215.937 126.647L216.332 126.67L216.411 126.902L216.553 127.088L216.775 127.215L217.059 127.319L217.233 127.482L217.17 127.783L217.533 127.841L217.565 128.084L217.707 128.269L217.913 128.408L218.055 128.594L218.213 128.768L218.545 128.849L218.656 129.046L218.719 129.277L218.877 129.44L219.24 129.509L219.414 129.671L219.398 129.938L219.699 130.042L219.904 130.181L219.888 130.448L220.252 130.517V130.772L220.378 130.958L220.694 131.05L220.837 131.236L220.963 131.421L221.09 131.606L221.232 131.792L221.501 131.908L221.58 132.116L221.864 132.232L221.848 132.487L222.117 132.614L222.259 132.8L222.386 132.974L222.623 133.113L222.749 133.31L222.891 133.483L222.86 133.75L223.128 133.877L223.223 134.074L223.508 134.19L223.65 134.376L223.634 134.619L223.729 134.816L224.124 134.897V135.14L224.409 135.256L224.551 135.43L224.504 135.696L224.614 135.882L224.962 135.986L225.088 136.171V136.415L225.294 136.565L225.483 136.728L225.468 136.971L225.768 137.087L225.752 137.33L225.973 137.481L225.91 137.736L226.211 137.863L226.258 138.072L226.463 138.234L226.653 138.396L226.811 138.57L226.89 138.778L226.969 138.975L227.111 139.161V139.393L227.333 139.543V139.775L227.475 139.96L227.696 140.111L227.854 140.285L227.933 140.493L227.87 140.737L228.044 140.91L228.076 141.131L228.392 141.258L228.486 141.455L228.534 141.664L228.692 141.837L228.66 142.069L228.787 142.266L229.04 142.417L229.087 142.614L229.229 142.799L229.419 142.973L229.324 143.228L229.688 143.344L229.593 143.599L229.798 143.761L229.988 143.935L229.909 144.178L229.941 144.386L230.272 144.525L230.399 144.711L230.225 144.977L230.383 145.151L230.51 145.336L230.478 145.568L230.636 145.754L230.747 145.939L230.873 146.136L231.142 146.287L231.047 146.53L231.094 146.738L231.205 146.924L231.49 147.086L231.395 147.318L231.426 147.526L231.458 147.747L231.79 147.886L231.885 148.083L231.837 148.314L232.011 148.488L232.153 148.685L231.932 148.94L232.264 149.091L232.375 149.288L232.169 149.542L232.28 149.739L232.438 149.913L232.675 150.087L232.469 150.342L232.722 150.516L232.612 150.747L232.707 150.944L232.959 151.107L233.038 151.315L233.149 151.501L233.181 151.721L233.117 151.941L233.291 152.126L233.212 152.346L233.323 152.543L233.26 152.775L233.339 152.972L233.386 153.181L233.544 153.366L233.655 153.563L233.813 153.748L233.876 153.957L233.655 154.2L233.86 154.374L233.892 154.583L233.844 154.803L233.892 155.011L233.971 155.208L234.082 155.405L234.24 155.602L234.192 155.822V156.031L234.429 156.216L234.334 156.436V156.645L234.35 156.854L234.619 157.039L234.445 157.259L234.587 157.456L234.413 157.688L234.682 157.873L234.651 158.082L234.714 158.29L234.666 158.499L234.698 158.707L234.777 158.916L234.967 159.113L234.761 159.333L234.809 159.542L234.824 159.75L235.03 159.947L235.109 160.144L234.856 160.376L234.967 160.573L235.125 160.77L235.014 160.99L234.967 161.199L235.077 161.407L235.204 161.604L235.156 161.813L235.33 162.021L235.267 162.23L235.204 162.438L235.314 162.647L235.062 162.867L235.141 163.064L235.235 163.273L235.141 163.481L235.346 163.69L235.299 163.898L235.346 164.107L235.378 164.315L235.393 164.524L235.314 164.733L235.409 164.941L235.204 165.15L235.299 165.358L235.378 165.567L235.409 165.775L235.299 165.984Z" fill="#FFCC33"/>
<path d="M745.658 122.117L745.784 122.353L745.856 122.589L745.82 122.826L745.623 123.062L745.838 123.299L745.73 123.535L745.569 123.772L745.766 124.008L745.676 124.245L745.694 124.481L745.623 124.718V124.954L745.425 125.177L745.497 125.427L745.443 125.65L745.569 125.9L745.461 126.123L745.372 126.36L745.479 126.609L745.425 126.833L745.641 127.082L745.3 127.305L745.39 127.542L745.318 127.778L745.21 128.002L745.336 128.251L745.425 128.501L745.21 128.724L745.318 128.961L745.372 129.21L745.246 129.434L745.121 129.657L745.031 129.893L745.013 130.13L744.96 130.366L745.049 130.603L744.834 130.826L745.031 131.089L744.942 131.312L744.816 131.535L744.852 131.785L744.924 132.021L744.565 132.232L744.583 132.468L744.44 132.691L744.458 132.928L744.619 133.191L744.547 133.427V133.663L744.512 133.9L744.35 134.11L744.368 134.36L744.297 134.596L744.314 134.833L744.028 135.03L743.867 135.253L744.082 135.529L744.01 135.752L743.759 135.962L743.669 136.186L743.687 136.422L743.777 136.685L743.401 136.869L743.454 137.118L743.472 137.355L743.508 137.604L743.419 137.841L743.383 138.077L743.042 138.261L742.935 138.485L742.988 138.734L742.971 138.971L742.935 139.207L742.702 139.417L742.558 139.627L742.523 139.864L742.487 140.1L742.397 140.337L742.487 140.599L742.433 140.836L742.2 141.033V141.269L742.11 141.506L741.931 141.703L741.734 141.913L741.644 142.136L741.483 142.347L741.609 142.622V142.872L741.214 143.03L741.196 143.266V143.516L741.214 143.779L741.017 143.976L740.856 144.186L740.766 144.409L740.641 144.632L740.408 144.829L740.533 145.105L740.301 145.302L740.408 145.565L740.139 145.749L740.175 146.012L739.853 146.182L739.888 146.445L739.691 146.642L739.53 146.852L739.584 147.115L739.279 147.286L739.225 147.522L739.01 147.719L738.867 147.93L738.974 148.219L738.598 148.35L738.634 148.626L738.455 148.823L738.222 149.007L738.383 149.309L738.061 149.467L737.917 149.677L737.846 149.913L737.756 150.137L737.541 150.334L737.344 150.531L737.415 150.806L737.2 151.004L737.165 151.24L736.985 151.437V151.7L736.555 151.818L736.609 152.107L736.502 152.33L736.412 152.554L736.233 152.751L735.91 152.895L735.982 153.184L735.874 153.407L735.731 153.631L735.588 153.841L735.158 153.946L735.176 154.222L734.889 154.38L734.907 154.642L734.746 154.853L734.441 154.997V155.273L734.298 155.483L733.957 155.614L733.993 155.89L733.832 156.1L733.67 156.311L733.419 156.468L733.33 156.705L733.222 156.928L732.846 157.046L732.792 157.296V157.572L732.523 157.729L732.344 157.926L732.147 158.11L731.914 158.294L731.896 158.557L731.807 158.793L731.592 158.977L731.323 159.135L731.287 159.398L731.018 159.542L730.66 159.66L730.732 159.976L730.57 160.186L730.373 160.37L730.051 160.501L729.8 160.659V160.948L729.477 161.066L729.334 161.276L729.316 161.565L728.975 161.67L728.993 161.972L728.689 162.104L728.474 162.275L728.438 162.55L727.972 162.603L727.793 162.8L727.667 163.023L727.488 163.22L727.381 163.457L727.058 163.575L727.094 163.877L726.861 164.048L726.467 164.127L726.485 164.429L726.09 164.521L725.983 164.744L725.786 164.941L725.553 165.099L725.535 165.388L725.141 165.467L724.997 165.677L724.711 165.808L724.531 166.005L724.514 166.307L724.083 166.36L723.994 166.596L723.707 166.741V167.043L723.42 167.174L723.098 167.293L723.08 167.595L722.704 167.661L722.524 167.858L722.309 168.028L722.112 168.212L722.023 168.475L721.646 168.554L721.593 168.83L721.234 168.908L721.019 169.092L720.894 169.329L720.715 169.526L720.374 169.618L720.195 169.815L719.872 169.92L719.711 170.13L719.514 170.314L719.263 170.472L719.066 170.656L718.923 170.879L718.511 170.931L718.295 171.102V171.431L718.009 171.549L717.632 171.615L717.489 171.851L717.364 172.088L717.023 172.166L716.736 172.285L716.486 172.442L716.468 172.771L716.253 172.941L715.984 173.086L715.679 173.191L715.446 173.349L715.321 173.598L714.927 173.624L714.819 173.9H714.389L714.192 174.097L714.12 174.386L713.762 174.439L713.654 174.715L713.332 174.807L713.17 175.03L712.866 175.135L712.597 175.253L712.31 175.385L712.006 175.477L711.773 175.647L711.647 175.91L711.343 176.002L711.128 176.186L710.931 176.383L710.572 176.436L710.357 176.62L710.196 176.856L709.873 176.935L709.515 176.987L709.443 177.303L708.977 177.237L708.906 177.565L708.476 177.539L708.332 177.789L708.081 177.933L707.848 178.104L707.58 178.235L707.365 178.432L707.132 178.59L706.809 178.656L706.504 178.748L706.325 178.971L706.021 179.063L705.644 179.102L705.519 179.378H705.125L704.892 179.549L704.695 179.746L704.444 179.904L704.229 180.074L703.781 180.022L703.637 180.298L703.44 180.495L703.028 180.469L702.759 180.613L702.544 180.771L702.275 180.902L701.989 181.033L701.72 181.152L701.415 181.244L701.164 181.401L700.824 181.454L700.699 181.743L700.412 181.861L700.036 181.848L699.821 182.032L699.48 182.084L699.373 182.426L698.978 182.386L698.71 182.518L698.477 182.689L698.244 182.872L697.814 182.82L697.688 183.109L697.258 183.056L697.043 183.24L696.774 183.385L696.47 183.45L696.201 183.595L695.86 183.621L695.592 183.753L695.377 183.95L695.09 184.068L694.803 184.173L694.57 184.357L694.158 184.278L693.889 184.409L693.656 184.62L693.334 184.659L693.155 184.935L692.742 184.869L692.527 185.053L692.223 185.158H691.864L691.685 185.421H691.327L691.004 185.46L690.735 185.592L690.52 185.828L690.162 185.815L689.929 186.025L689.642 186.13L689.302 186.143L689.015 186.249H688.657L688.442 186.459L688.137 186.551L687.761 186.498L687.546 186.748L687.223 186.8L686.936 186.892L686.668 187.024L686.327 187.037L685.987 187.063L685.79 187.352L685.467 187.405L685.216 187.549L684.822 187.47L684.535 187.588L684.195 187.602L683.944 187.759L683.639 187.838L683.388 188.035L683.084 188.101L682.797 188.219L682.492 188.311H682.152L681.865 188.429L681.489 188.324L681.202 188.469L680.898 188.547L680.593 188.626L680.342 188.797L679.966 188.744L679.697 188.889L679.41 188.981L679.07 189.007L678.765 189.073L678.461 189.125L678.138 189.191L677.887 189.375H677.547L677.188 189.349L676.937 189.559L676.579 189.48L676.292 189.598L675.97 189.611L675.701 189.795L675.361 189.769L675.11 190.019L674.805 190.071L674.447 190.019L674.124 190.032L673.819 190.124L673.515 190.216L673.192 190.229L672.923 190.4L672.601 190.452L672.26 190.413L671.902 190.36L671.615 190.465L671.311 190.531L671.024 190.702L670.666 190.636L670.379 190.741L670.092 190.886L669.752 190.846L669.429 190.859L669.071 190.807L668.766 190.873L668.515 191.162L668.157 191.03H667.834L667.512 191.096L667.189 191.07L666.92 191.332L666.598 191.359L666.275 191.372L665.917 191.24L665.612 191.332L665.308 191.398L664.967 191.385L664.663 191.451L664.376 191.634L664.035 191.595L663.695 191.503L663.39 191.595L663.104 191.805L662.763 191.7L662.423 191.674L662.1 191.7L661.796 191.766L661.491 191.871L661.15 191.766L660.828 191.779L660.505 191.792L660.219 192.042L659.878 191.976L659.538 191.858L659.233 191.963L658.928 192.147L658.606 192.199L658.265 192.055L657.961 192.186L657.638 192.199H657.316L656.993 192.147L656.688 192.304L656.348 192.147L656.025 192.278L655.703 192.186L655.38 192.199L655.058 192.173L654.735 192.331L654.431 192.37L654.09 192.291H653.768L653.445 192.383L653.14 192.436L652.8 192.252H652.477L652.155 192.291L651.832 192.357L651.51 192.199L651.187 192.304L650.865 192.278L650.542 192.462L650.22 192.239H649.897L649.574 192.265L649.252 192.278L648.929 192.423L648.607 192.239L648.284 192.37L647.962 192.436L647.639 192.462L647.317 192.41L646.994 192.331L646.672 192.344L646.367 192.16L646.044 192.173L645.704 192.357L645.399 192.212L645.077 192.226L644.754 192.265H644.414L644.091 192.344L643.786 192.173L643.446 192.304L643.141 192.134L642.801 192.278L642.496 192.055L642.174 192.094L641.851 192.081L641.547 191.989L641.206 192.094L640.884 192.121L640.561 192.002L640.221 192.134L639.916 192.042L639.611 191.858L639.289 191.95L638.966 191.858L638.644 191.884L638.321 191.91L638.016 191.713L637.676 191.845L637.353 191.858L637.067 191.634L636.726 191.648L636.422 191.621L636.117 191.49H635.794L635.472 191.464L635.149 191.437L634.827 191.424L634.504 191.411L634.182 191.385L633.859 191.372L633.572 191.201L633.232 191.227L632.927 191.135L632.569 191.306L632.246 191.28L631.96 191.122L631.637 191.096L631.35 190.951L630.974 191.07L630.723 190.82L630.419 190.754L630.06 190.807L629.72 190.873L629.433 190.715L629.11 190.689L628.824 190.557L628.483 190.584L628.125 190.649L627.892 190.334L627.516 190.518L627.265 190.281L626.942 190.242L626.584 190.321L626.297 190.176L625.992 190.098L625.634 190.176L625.401 189.887L625.007 190.058L624.702 189.979L624.434 189.809L624.057 189.887L623.824 189.638H623.484L623.197 189.52L622.839 189.572L622.552 189.467L622.247 189.388L621.907 189.375L621.602 189.296L621.298 189.257L621.011 189.099L620.724 189.02L620.384 188.981L620.115 188.85L619.757 188.889L619.452 188.784L619.183 188.639L618.878 188.574L618.556 188.534L618.215 188.521L618.018 188.219L617.696 188.193L617.391 188.101L617.122 187.983L616.8 187.93L616.477 187.877L616.173 187.825L615.85 187.759L615.545 187.707L615.295 187.51L614.972 187.444L614.596 187.523L614.327 187.378L614.004 187.339L613.718 187.234L613.449 187.089L613.198 186.905L612.875 186.853L612.535 186.84L612.212 186.8L611.908 186.708L611.603 186.616L611.352 186.472L611.119 186.275L610.833 186.17L610.456 186.196L610.134 186.143L609.883 185.973L609.542 185.96L609.31 185.749L609.094 185.539L608.718 185.565L608.449 185.447L608.216 185.237L607.804 185.316L607.5 185.237L607.231 185.119L607.07 184.83L606.693 184.843L606.46 184.646L606.138 184.607L605.869 184.462L605.546 184.409L605.313 184.239L604.919 184.278L604.722 184.028L604.489 183.845L604.095 183.897L603.952 183.608L603.575 183.595L603.306 183.477L602.93 183.49L602.697 183.306L602.375 183.253L602.195 183.004L601.837 182.978L601.64 182.741L601.407 182.583L600.977 182.649L600.887 182.308L600.529 182.268L600.206 182.203L600.027 181.979L599.705 181.914L599.49 181.716L599.203 181.598L598.809 181.611L598.504 181.519L598.379 181.23L598.146 181.06L597.698 181.138L597.501 180.928L597.303 180.705L597.071 180.547H596.676L596.497 180.324L596.21 180.219L595.977 180.048L595.529 180.114L595.332 179.904L595.189 179.654L594.777 179.667L594.687 179.339L594.221 179.404L594.168 179.076L593.773 179.05L593.63 178.813L593.29 178.748L592.949 178.695L592.644 178.577L592.519 178.314L592.25 178.196L592.071 177.973H591.659L591.498 177.749L591.193 177.644L591.085 177.368L590.781 177.276L590.512 177.132L590.189 177.053L589.992 176.856L589.634 176.803L589.562 176.488L589.114 176.514L588.828 176.396L588.577 176.252L588.451 175.989L588.272 175.779H587.86L587.824 175.437L587.376 175.464L587.34 175.135H586.91L586.785 174.886L586.408 174.846L586.14 174.702L586.032 174.439L585.692 174.36L585.62 174.058L585.28 173.992L584.957 173.887L584.814 173.664L584.617 173.467L584.473 173.244L584.169 173.138L583.828 173.046L583.685 172.81L583.47 172.639L583.165 172.534L582.968 172.35L582.807 172.127L582.395 172.101L582.323 171.825L582.179 171.588L581.911 171.444L581.624 171.326L581.248 171.273L581.194 170.984L580.979 170.8L580.638 170.708L580.603 170.406L580.208 170.353L580.011 170.17L579.76 170.025L579.527 169.854L579.42 169.605L579.205 169.434L578.811 169.368L578.739 169.106L578.416 169L578.363 168.725L578.04 168.606L577.933 168.37L577.61 168.265L577.359 168.107L577.287 167.844L577.09 167.647L576.947 167.424L576.499 167.398L576.266 167.227L576.105 167.017L576.033 166.754L575.836 166.57L575.567 166.426L575.46 166.189L575.281 165.992L575.012 165.848L574.707 165.716L574.582 165.493L574.385 165.309L574.152 165.138L573.99 164.941L573.739 164.784L573.596 164.56L573.274 164.442L573.238 164.166L572.861 164.087L572.826 163.798L572.7 163.575L572.539 163.378L572.234 163.247L572.127 163.01L571.965 162.8L571.822 162.59L571.643 162.393L571.356 162.261L571.284 161.999L570.98 161.867L570.657 161.736L570.711 161.434L570.281 161.368L570.12 161.158L569.905 160.974L569.851 160.724L569.618 160.541L569.493 160.33L569.242 160.16V159.884L569.116 159.66L568.901 159.477L568.722 159.293L568.632 159.043L568.238 158.951L568.005 158.78L567.862 158.57L567.736 158.347L567.539 158.15L567.324 157.979L567.432 157.651L567.163 157.493L567.055 157.256L566.787 157.112L566.5 156.954L566.428 156.718L566.231 156.521L566.267 156.245L565.98 156.087L565.712 155.917L565.837 155.601L565.443 155.496L565.246 155.299L565.12 155.089V154.813L565.031 154.577L564.744 154.419L564.816 154.13L564.583 153.959L564.314 153.788L564.099 153.605L564.153 153.316L563.812 153.184L563.794 152.921L563.615 152.724L563.364 152.554V152.291L563.077 152.12L563.131 151.844L563.024 151.621L562.809 151.437L562.755 151.187L562.379 151.056L562.414 150.793L562.289 150.57L562.128 150.36L562.181 150.097L561.913 149.926L561.859 149.677L561.518 149.532L561.698 149.217L561.232 149.099L561.447 148.783L560.999 148.665V148.403L560.909 148.179L560.658 147.995L560.605 147.759L560.658 147.483L560.551 147.273L560.264 147.089L560.049 146.905L560.21 146.603L560.157 146.366L559.959 146.169V145.92L559.834 145.696L559.565 145.526L559.368 145.315L559.171 145.118L559.332 144.829L559.225 144.606L559.046 144.409L558.974 144.173L558.651 144.002L558.884 143.7L558.813 143.463L558.669 143.253L558.257 143.095V142.859L558.132 142.636L558.203 142.373L558.078 142.15L558.024 141.913L558.06 141.664L557.827 141.466L557.702 141.243L557.594 141.02L557.487 140.797L557.433 140.573L557.54 140.297L557.254 140.113L557.361 139.851L557.2 139.641L557.092 139.417L556.788 139.22L556.985 138.944L556.859 138.721L556.716 138.511L556.788 138.248L556.591 138.051L556.68 137.788L556.626 137.552L556.214 137.381L556.483 137.092L556.393 136.869L556.053 136.685L555.981 136.448L556.143 136.186L555.91 135.975L555.82 135.752L555.892 135.503L555.659 135.292L555.784 135.03L555.623 134.819L555.73 134.557L555.659 134.333L555.533 134.11V133.861L555.408 133.637L555.48 133.401L555.372 133.164L555.408 132.928L555.032 132.731L555.211 132.468L554.996 132.258L554.906 132.021L555.067 131.772L554.906 131.548L555.085 131.286L554.834 131.076L554.763 130.839L554.709 130.616L554.727 130.379L554.781 130.13L554.584 129.906L554.512 129.683L554.655 129.434L554.566 129.197L554.458 128.974L554.584 128.724L554.601 128.488L554.53 128.251L554.261 128.028V127.791L554.422 127.542L554.297 127.319L554.189 127.082L554.351 126.846L554.225 126.609L554.297 126.373L554.279 126.136L554.351 125.9L554.261 125.663L554.154 125.427L554.225 125.19L553.992 124.954L554.279 124.718L554.297 124.481L554.243 124.245L554.046 124.008L554.01 123.772L553.938 123.535L554.225 123.299L554.261 123.062L554.046 122.826L554.028 122.589L553.938 122.353L553.974 122.117L554.171 121.88L553.992 121.644L554.243 121.407L554.207 121.171L554.171 120.934L554.1 120.698L554.297 120.461L554.046 120.225L554.261 119.988L554.315 119.752L554.261 119.516L554.028 119.279L554.154 119.043L554.171 118.806V118.57L554.154 118.333L554.297 118.11L554.279 117.86L554.297 117.624L554.422 117.401L554.171 117.151L554.351 116.928L554.369 116.691L554.315 116.442L554.548 116.218L554.315 115.969L554.655 115.759L554.44 115.509L554.422 115.259L554.53 115.036L554.691 114.813L554.512 114.563V114.327L554.709 114.103L554.763 113.867L554.799 113.63L554.978 113.407L554.96 113.171L554.763 112.908L555.067 112.698L555.049 112.461L554.924 112.212L555.193 112.001L555.014 111.739L555.372 111.542L555.408 111.305L555.175 111.043L555.247 110.806L555.265 110.57L555.318 110.346L555.39 110.11L555.408 109.873L555.497 109.637L555.766 109.44L555.587 109.177L555.91 108.98L556.017 108.757L555.73 108.468L555.82 108.244L556.017 108.034L556.196 107.811L556.214 107.575L556.196 107.338L556.465 107.128L556.447 106.891L556.608 106.681L556.447 106.405L556.716 106.208L556.806 105.985L556.841 105.749L556.806 105.499L556.931 105.276L556.895 105.026L557.146 104.829L557.271 104.606L557.074 104.33L557.379 104.146L557.522 103.923L557.433 103.66L557.576 103.45L557.702 103.226L557.845 103.003L557.863 102.767L557.899 102.53L558.096 102.333L558.114 102.083L558.132 101.834L558.239 101.624L558.185 101.361L558.526 101.19L558.508 100.941L558.813 100.757L558.759 100.507L558.938 100.297L559.028 100.06L558.956 99.7978L559.153 99.6007L559.386 99.4037L559.243 99.1278L559.601 98.9702L559.565 98.7074L559.547 98.4447L559.726 98.2477L559.924 98.0506L559.906 97.7879L559.941 97.5514L560.282 97.3807L560.407 97.1705L560.587 96.9734L560.425 96.6713L560.802 96.5268L560.945 96.3166L560.963 96.067L561.07 95.8437L561.232 95.6335L561.447 95.4365L561.268 95.1343L561.698 95.003L561.5 94.6877L561.716 94.5038L561.859 94.2936L562.146 94.1228L562.217 93.8864L562.325 93.663L562.396 93.4266L562.665 93.2558V92.9931L562.916 92.8223L562.934 92.5727L562.97 92.3231L563.346 92.1918L563.274 91.9028L563.382 91.6794L563.597 91.4824L563.669 91.2591L563.902 91.0752L564.099 90.8781L564.314 90.6942L564.242 90.4052L564.601 90.2738L564.78 90.0768V89.8141L564.833 89.5645L565.174 89.4331V89.1573L565.568 89.0522L565.64 88.8026L565.694 88.5661L565.891 88.3691L566.142 88.1983L566.07 87.8962L566.339 87.7385L566.357 87.4758L566.625 87.3182L566.769 87.108L566.966 86.9109L567.163 86.727L567.306 86.5168L567.432 86.2935L567.719 86.149L567.683 85.86L567.826 85.6367L568.095 85.4791L568.346 85.3214L568.471 85.0981L568.74 84.9405L568.794 84.6909L568.991 84.507L569.152 84.2968L569.331 84.0997L569.403 83.8501L569.725 83.7188L569.941 83.5349L570.138 83.3641L570.173 83.1014L570.335 82.8912L570.693 82.7861V82.484L571.087 82.4051L571.159 82.1555L571.213 81.8928L571.464 81.7352L571.804 81.6169L572.001 81.433V81.144L572.18 80.947L572.503 80.8288V80.5266L572.933 80.4741L573.148 80.2902L573.309 80.08L573.417 79.8567L573.614 79.6596L573.847 79.502L574.134 79.3706V79.0685L574.492 78.9765L574.528 78.6875L574.635 78.4511L574.904 78.3066L575.065 78.0964L575.263 77.9125L575.567 77.7811L575.639 77.5315L576.141 77.5184L576.176 77.2425L576.517 77.1374L576.732 76.9535L576.911 76.7696L576.965 76.4806L577.162 76.3098L577.395 76.1391L577.682 76.0077L577.986 75.8895L578.148 75.6793L578.255 75.4297L578.452 75.2458L578.793 75.1538L579.026 74.9831L579.115 74.7203L579.384 74.5758L579.545 74.3788L579.707 74.1686L579.975 74.011L580.244 73.8796L580.549 73.7614L580.692 73.538L581.033 73.4592V73.1177L581.427 73.0783L581.499 72.7893L581.911 72.7761L582.126 72.5922L582.251 72.3558L582.43 72.1456L582.86 72.1193L583.022 71.9091L583.183 71.6858L583.362 71.4888L583.667 71.3705L583.864 71.1866L584.097 71.029L584.312 70.8451L584.67 70.7925L584.885 70.5955L585.118 70.4379L585.297 70.2277L585.53 70.07L585.692 69.8598L586.086 69.8204L586.176 69.5446L586.462 69.4263L586.677 69.2424L587.071 69.2162L587.34 69.0848L587.555 68.9009L587.735 68.6907L587.914 68.4805L588.147 68.3229L588.398 68.1784L588.648 68.0076L589.025 67.9813L589.311 67.8631L589.401 67.5741L589.688 67.469L589.974 67.3377L590.243 67.2063L590.512 67.0881L590.673 66.8385L590.87 66.6414L591.103 66.4969L591.587 66.5626L591.784 66.3656L592.017 66.1948L592.232 65.9977L592.519 65.9058L592.842 65.827L592.931 65.4986L593.343 65.5248L593.54 65.3278L593.899 65.2884L594.132 65.1045L594.275 64.8549L594.616 64.8023L594.777 64.5527H595.171L595.279 64.2506L595.745 64.3294L595.924 64.1061L596.121 63.8959L596.443 63.8302L596.73 63.712L596.873 63.4493L597.25 63.423H597.626L597.787 63.1734L598.002 62.9764L598.307 62.8975L598.558 62.7399L598.791 62.5691H599.167L599.472 62.4772L599.651 62.2407L599.884 62.0568L600.171 61.9517H600.547L600.816 61.8335L601.102 61.7153L601.282 61.4657L601.658 61.4919L601.998 61.4525L602.088 61.0847L602.518 61.1504L602.661 60.8614L602.966 60.7826L603.235 60.6512L603.504 60.5067L603.88 60.533L604.149 60.4016L604.418 60.2571L604.65 60.0864L605.081 60.152L605.242 59.8762L605.564 59.8368L605.887 59.7711L606.227 59.7317L606.514 59.6397L606.657 59.3113L606.944 59.2193L607.267 59.1537L607.643 59.1668L607.804 58.8909L608.109 58.799L608.521 58.8909L608.682 58.5757L609.005 58.5231H609.345L609.632 58.3918L609.955 58.3523L610.152 58.1028L610.546 58.1684L610.743 57.8926L611.066 57.8663L611.316 57.6692L611.711 57.7481L611.926 57.5247L612.32 57.6036L612.499 57.3014L612.929 57.4459L613.198 57.3146L613.467 57.1832L613.754 57.065L614.13 57.0912L614.327 56.8285L614.721 56.9205L615.008 56.8022L615.277 56.6709L615.528 56.487L615.922 56.5658L616.191 56.4476L616.424 56.2374L616.746 56.1717L617.033 56.0666L617.319 55.9352L617.696 56.0141L617.929 55.7907L618.323 55.909L618.52 55.5937L618.878 55.6462L619.147 55.4886L619.47 55.4492L619.846 55.5149L620.133 55.4361L620.366 55.1602L620.724 55.2127L621.029 55.1471L621.351 55.0945L621.656 55.0157L621.979 54.9894L622.301 54.9631L622.57 54.7924L622.928 54.8581L623.215 54.753L623.52 54.661L623.824 54.5691L624.075 54.3326L624.398 54.3063L624.684 54.2144L625.025 54.2012L625.401 54.3063L625.724 54.2801L626.01 54.2012L626.297 54.0699L626.566 53.886L626.942 53.9779L627.265 53.9648L627.551 53.8334L627.82 53.6364L628.161 53.6495L628.501 53.6758H628.824L629.146 53.6495L629.433 53.4919L629.756 53.4525L630.042 53.3605L630.365 53.308L630.669 53.2029L630.992 53.216L631.332 53.2291L631.619 53.0584L631.924 53.019L632.282 53.1109L632.605 53.0978H632.927L633.25 53.0584L633.519 52.835L633.877 52.9664L634.164 52.7694L634.522 52.9007L634.827 52.7956L635.149 52.8088L635.472 52.7825L635.777 52.638L636.099 52.6643L636.386 52.4541L636.744 52.6511L637.049 52.5592L637.353 52.4672L637.694 52.4804L637.999 52.4015L638.303 52.2833L638.662 52.5066L638.966 52.349L639.289 52.3753L639.593 52.2176L639.934 52.2833L640.238 52.1914L640.579 52.2965L640.884 52.1257L641.206 52.0863L641.529 52.152L641.851 52.0731L642.156 51.9943L642.496 52.0863L642.801 51.9943H643.123L643.464 52.1125L643.786 52.152H644.109L644.432 52.0994H644.754L645.077 51.9943L645.381 51.968L645.722 52.0469L646.026 51.8235L646.349 51.863L646.672 51.9286L646.994 51.863L647.317 51.9155L647.639 51.8235L647.962 51.771H648.284L648.607 51.8367L648.929 51.8235L649.252 51.968L649.574 51.7841L649.897 51.8104L650.22 51.9024L650.542 52.0075L650.865 51.8892L651.187 51.7841L651.51 51.9024L651.832 51.8498L652.155 51.8104L652.477 51.8235L652.8 52.0469L653.123 52.0337L653.445 52.0731L653.768 51.9286L654.09 52.0206H654.413L654.753 51.8498L655.058 52.0469L655.38 51.9024L655.703 52.0994L656.025 51.968L656.348 52.0731H656.671L656.975 52.2045L657.298 52.1914L657.638 52.06L657.961 51.9943L658.265 52.1782L658.588 52.2965L658.928 52.0994H659.251L659.556 52.2702L659.878 52.2308L660.183 52.3621L660.523 52.2965L660.828 52.4541L661.168 52.349L661.491 52.2833L661.796 52.4935L662.1 52.5592L662.441 52.4672L662.727 52.638L663.104 52.441L663.408 52.5066L663.749 52.4804L664.035 52.6249H664.358L664.681 52.6905L664.967 52.8482L665.308 52.8219L665.666 52.7037L665.935 52.8876L666.24 53.0058L666.616 52.8219L666.92 52.9401H667.243L667.53 53.0715L667.816 53.2291L668.139 53.2817L668.479 53.216L668.838 53.124L669.142 53.216L669.465 53.2423L669.716 53.5181L670.092 53.3605H670.415L670.684 53.5707H671.006L671.293 53.7283L671.597 53.8071L671.992 53.6364L672.296 53.6889L672.583 53.8334L672.888 53.9254L673.228 53.8991L673.551 53.9516L673.819 54.0961L674.16 54.083L674.482 54.1356L674.751 54.3195L675.038 54.4246L675.378 54.3983L675.737 54.372L676.024 54.4771L676.346 54.5165L676.597 54.7136L676.973 54.6479L677.296 54.661L677.529 54.9369L677.833 54.9894L678.192 54.9631L678.478 55.0551L678.783 55.1339L679.142 55.0945L679.374 55.3572L679.679 55.4098L679.966 55.5411L680.288 55.5806L680.611 55.62L680.969 55.5674L681.184 55.8433L681.561 55.7645L681.847 55.8827L682.134 55.9878L682.403 56.1586L682.725 56.198L683.012 56.2899L683.406 56.2111L683.639 56.395L683.926 56.5132L684.213 56.6183L684.517 56.6972L684.929 56.5921L685.216 56.684L685.395 56.9993L685.7 57.0781L686.094 56.9862L686.417 57.0387L686.632 57.2883L686.99 57.2752L687.187 57.5379L687.617 57.4065L687.886 57.5247L688.137 57.7218L688.424 57.8138L688.693 57.9451L689.033 57.9714L689.266 58.1816H689.606L689.893 58.2998L690.18 58.4049L690.52 58.4312L690.843 58.4837L691.058 58.707L691.291 58.9041L691.667 58.8515L691.954 58.9829L692.276 59.0354L692.456 59.2982L692.886 59.2062L693.101 59.4164L693.334 59.6003L693.692 59.5872L693.997 59.6791L694.266 59.8236L694.498 60.0075L694.893 59.9419L695.054 60.2309L695.323 60.3622L695.609 60.4804L696.022 60.4148L696.183 60.7038L696.47 60.7957L696.738 60.9402L697.079 60.9665L697.366 61.0716L697.634 61.2029L697.975 61.2555L698.244 61.3737L698.512 61.5182L698.763 61.6759L698.996 61.8466L699.229 62.0174L699.606 62.0043L699.785 62.2539L700.053 62.3852L700.466 62.3327L700.752 62.4509L701.021 62.5823L701.272 62.7399L701.433 63.0026L701.828 62.9895L702.007 63.2128L702.222 63.3967L702.491 63.5412L702.867 63.5544L703.189 63.6069L703.369 63.8434L703.655 63.9485L703.888 64.1192L704.085 64.3163L704.354 64.4608L704.695 64.5133L705.035 64.579L705.232 64.7629L705.447 64.96L705.698 65.1045L706.11 65.0913L706.236 65.3672L706.433 65.5642L706.899 65.5117L706.988 65.827L707.203 65.9846L707.454 66.1422L707.938 66.0634L708.099 66.2867L708.296 66.4969L708.529 66.6677L708.798 66.7859L709.121 66.891L709.354 67.0355L709.515 67.272H709.945L710.142 67.4559L710.393 67.6004L710.662 67.7317L710.895 67.9025L711.092 68.0996L711.45 68.1521L711.647 68.3492L711.862 68.5331L712.006 68.7564L712.31 68.8746L712.615 68.9797L712.938 69.0717L713.117 69.2687L713.403 69.3869L713.672 69.5183L713.726 69.8336L714.12 69.8598L714.228 70.1357L714.514 70.2539L714.64 70.5035L715.034 70.5298L715.177 70.7794L715.518 70.8451L715.769 71.0027L716.056 71.1209L716.235 71.3311L716.504 71.4625L716.486 71.804L716.934 71.8172L716.987 72.1193L717.238 72.2638L717.399 72.474L717.668 72.6185L718.045 72.671L718.17 72.9206L718.439 73.052L718.779 73.144L718.761 73.4855L719.066 73.5906L719.227 73.8008L719.657 73.8402L719.854 74.0241L719.944 74.2737L720.213 74.4182L720.392 74.6152L720.733 74.7203L720.75 75.0225L721.019 75.167L721.288 75.3115L721.664 75.3771L721.718 75.653L721.987 75.7975L722.166 75.9946L722.22 76.2704L722.471 76.4149L722.722 76.5726L723.08 76.6645L723.277 76.8484L723.385 77.098L723.689 77.2162L723.707 77.5184L724.155 77.5447L724.245 77.8074L724.406 78.0176L724.657 78.1621L724.979 78.2803L725.177 78.4642L725.105 78.8058L725.517 78.8714L725.553 79.1473L725.714 79.3575L725.947 79.5151L726.108 79.7253L726.288 79.9223L726.664 80.0143L726.789 80.2376L726.861 80.5004L727.04 80.6843L727.452 80.7631L727.649 80.947L727.632 81.2491L727.972 81.3674L728.205 81.525L728.187 81.8271L728.599 81.9059V82.1949L728.743 82.4051L729.101 82.5102L729.262 82.7204L729.406 82.9306L729.549 83.1408L729.71 83.351L730.015 83.4823L730.104 83.7188L730.427 83.8501L730.409 84.1391L730.714 84.2836L730.875 84.4938L731.018 84.6909L731.287 84.8485L731.43 85.0718L731.592 85.2689L731.556 85.571L731.86 85.7155L731.968 85.9388L732.291 86.0702L732.452 86.2804L732.434 86.5562L732.541 86.7796L732.989 86.8715V87.1474L733.312 87.2787L733.473 87.4758L733.419 87.7779L733.545 87.9881L733.939 88.1063L734.082 88.3165V88.5924L734.315 88.7632L734.53 88.9471L734.513 89.2229L734.853 89.3543L734.835 89.6302L735.086 89.8009L735.014 90.0899L735.355 90.2344L735.409 90.4709L735.641 90.6548L735.857 90.8387L736.036 91.0358L736.125 91.2722L736.215 91.4955L736.376 91.7057V91.9685L736.627 92.1392V92.402L736.788 92.6121L737.039 92.7829L737.218 92.98L737.308 93.2164L737.236 93.4923L737.433 93.6893L737.469 93.9389L737.828 94.0834L737.935 94.3067L737.989 94.5432L738.168 94.7402L738.132 95.003L738.276 95.2263L738.562 95.3971L738.616 95.6204L738.777 95.8306L738.992 96.0276L738.885 96.3166L739.297 96.448L739.19 96.737L739.422 96.9209L739.638 97.1179L739.548 97.3938L739.584 97.6302L739.96 97.7879L740.103 97.9981L739.906 98.3002L740.086 98.4973L740.229 98.7074L740.193 98.9702L740.372 99.1803L740.498 99.3905L740.641 99.6139L740.946 99.7846L740.838 100.06L740.892 100.297L741.017 100.507L741.34 100.691L741.232 100.954L741.268 101.19L741.304 101.44L741.68 101.597L741.788 101.821L741.734 102.083L741.931 102.281L742.092 102.504L741.842 102.793L742.218 102.964L742.343 103.187L742.11 103.476L742.236 103.699L742.415 103.896L742.684 104.093L742.451 104.382L742.738 104.579L742.612 104.842L742.72 105.065L743.006 105.249L743.096 105.486L743.221 105.696L743.257 105.946L743.186 106.195L743.383 106.405L743.293 106.655L743.419 106.878L743.347 107.141L743.436 107.364L743.49 107.601L743.669 107.811L743.795 108.034L743.974 108.244L744.046 108.481L743.795 108.757L744.028 108.954L744.064 109.19L744.01 109.44L744.064 109.676L744.153 109.9L744.279 110.123L744.458 110.346L744.404 110.596V110.832L744.673 111.043L744.565 111.292V111.529L744.583 111.765L744.888 111.975L744.691 112.225L744.852 112.448L744.655 112.711L744.96 112.921L744.924 113.157L744.995 113.394L744.942 113.63L744.977 113.867L745.067 114.103L745.282 114.327L745.049 114.576L745.103 114.813L745.121 115.049L745.354 115.272L745.443 115.496L745.157 115.759L745.282 115.982L745.461 116.205L745.336 116.455L745.282 116.691L745.408 116.928L745.551 117.151L745.497 117.387L745.694 117.624L745.623 117.86L745.551 118.097L745.676 118.333L745.39 118.583L745.479 118.806L745.587 119.043L745.479 119.279L745.712 119.516L745.658 119.752L745.712 119.988L745.748 120.225L745.766 120.461L745.676 120.698L745.784 120.934L745.551 121.171L745.658 121.407L745.748 121.644L745.784 121.88L745.658 122.117Z" fill="#64B4FA"/>
</g>
</svg>
